<svg width="106" height="24" viewBox="0 0 106 24" fill="none" xmlns="http://www.w3.org/2000/svg">
<path d="M12.1622 24H7.59717L14.1439 8.57701L16.3925 3.27961L17.7846 0H22.5678L32.9733 24H28.1902L25.4544 17.4546H17.4824L23.8432 13.5944L20.067 4.58182L18.5611 8.28127L12.1622 24Z" fill="white"/>
<path d="M0 24H4.56503L10.9639 8.28127L12.4699 4.58182L14.3217 0H10.1874L8.79531 3.27961L6.54669 8.57701L0 24Z" fill="#E55A19"/>
<path d="M39.7907 0V23.8333H35.3735V0H39.7907ZM48.3919 0V23.8333H43.9746V0H48.3919ZM59.9601 6.33333C65.272 6.33333 67.9279 9.04445 67.9279 14.4667C67.9279 15.1889 67.8779 15.9111 67.7779 16.6333H56.1596C56.1596 19.1 57.971 20.3334 61.5938 20.3334C63.3606 20.3334 65.1275 20.1667 66.8944 19.8333V23.3333C65.3498 23.6666 63.4718 23.8333 61.2604 23.8333C54.915 23.8333 51.7424 20.8501 51.7424 14.8833C51.7424 9.18333 54.4817 6.33333 59.9601 6.33333ZM56.1596 13.5667H63.6273V13.4333C63.6273 11.0111 62.405 9.79999 59.9601 9.79999C57.6265 9.79999 56.3597 11.0556 56.1596 13.5667ZM71.245 23.8333V0H75.6623V11.2333C76.6569 9.24444 80.2156 6.4 83.0578 6.4C86.6165 6.4 88.0806 8.01667 88.0806 11.3833C88.0806 13.8278 86.5249 15.7389 83.4134 17.1167L88.8474 23.8333H83.4466L78.8794 17.5834V15.5334C82.0687 14.8555 83.6634 13.7444 83.6634 12.2C83.6634 10.6222 82.6077 9.83333 80.4963 9.83333C79.0184 9.83333 77.4069 10.3 75.6623 11.2333V23.8333H71.245ZM91.3477 23V19.3334C93.2925 20.1111 95.5372 20.5001 98.082 20.5001C99.9822 20.5001 100.932 19.8889 100.932 18.6667C100.932 17.5 100.293 16.9166 99.0156 16.9166H95.8484C92.2924 16.9166 90.5143 15.1667 90.5143 11.6667C90.5143 8 93.1091 6.16667 98.2987 6.16667C100.499 6.16667 102.572 6.5 104.516 7.16666V10.8333C102.572 10.0556 100.46 9.66667 98.182 9.66667C95.7928 9.66667 94.5982 10.2778 94.5982 11.5C94.5982 12.6667 95.2928 13.25 96.6818 13.25H99.5155C103.405 13.25 105.35 15 105.35 18.5C105.35 22.1666 102.872 24 97.9153 24C95.4817 24 93.2925 23.6666 91.3477 23Z" fill="white"/>
</svg>
