<svg xmlns="http://www.w3.org/2000/svg" x="0px" y="0px" width="100" height="100" viewBox="0,0,256,256">
<g fill="#fa5252" fill-rule="nonzero" stroke="none" stroke-width="1" stroke-linecap="butt" stroke-linejoin="miter" stroke-miterlimit="10" stroke-dasharray="" stroke-dashoffset="0" font-family="none" font-weight="none" font-size="none" text-anchor="none" style="mix-blend-mode: normal"><g transform="scale(8.53333,8.53333)"><path d="M15.51172,2.00195c-1.96491,0.03227 -3.46961,0.40992 -3.66211,0.4668c-0.44,0.129 -1.32695,0.37231 -1.25195,0.69531c0.048,0.207 0.22491,0.30764 1.25391,0.30664c2.302,-0.003 4.09236,0.14719 5.31836,0.36719c2.493,0.45 1.90331,1.70616 1.19531,2.91016c-1.718,2.93 -6.36186,6.22806 -6.63086,6.41406c-0.354,0.244 -0.15861,0.38549 0.15039,0.27149c3.764,-1.4 7.55784,-3.81505 9.08984,-6.74805c1.3,-2.488 0.36772,-3.66761 -1.61328,-4.22461c-1.32637,-0.37312 -2.67066,-0.47834 -3.84961,-0.45898zM23.76367,11.19727c-1.726,0.0035 -3.62073,0.2905 -4.80273,1.3125c-1.972,1.705 0.95117,4.51305 2.32617,6.12305c1.339,1.565 2.95916,3.55237 3.03516,4.23438c0.035,0.313 -0.02734,0.66934 -0.40234,0.90234c-0.612,0.382 -3.14009,0.75109 -8.37109,0.74609c-1.135,-0.001 -1.36848,0.1095 -1.39648,0.3125c-0.016,0.106 -0.05042,0.3548 1.39258,0.7168c0.04,0.011 5.99492,1.106 9.16992,0c3.245,-1.107 2.4277,-2.97764 1.8457,-4.05664c-0.896,-1.663 -5.03009,-6.4973 -5.37109,-7.1543c-0.319,-0.615 0.14648,-0.88476 0.14648,-0.88476c0,0 0.69012,-0.83316 6.20312,-0.78516c1.136,0.008 1.37339,-0.11045 1.40039,-0.31445c0.022,-0.169 -0.30281,-0.53558 -1.38281,-0.76758c-0.51,-0.109 -2.06697,-0.38827 -3.79297,-0.38476zM10.02539,14.83398c-2.12148,0.02562 -3.82773,0.43195 -4.20898,0.5332c-0.924,0.245 -1.46378,0.49225 -1.42578,0.78125c0.029,0.214 0.26344,0.36198 1.39844,0.33398c2.706,-0.066 4.94823,0.02488 6.36523,0.42188c1.755,0.49 1.97252,1.39392 1.10351,3.16992c-0.402,0.82 -0.99648,1.66931 -1.89648,2.57031c-1.797,1.803 -4.04359,2.97619 -5.30859,3.61719c-1.23,0.624 -1.67997,0.29273 -1.54297,-0.32227c0.168,-0.754 3.6582,-6.79297 3.6582,-6.79297c0.262,-0.458 0.309,-0.88858 0,-1.01758c-0.265,-0.113 -0.74419,0.25894 -1.24219,0.83594c-2.037,2.366 -5.79328,9.56283 -5.86328,9.79883c-0.069,0.226 0.10683,0.25486 0.17383,0.25586c1.59,-0.012 11.35586,-2.89973 14.50586,-8.80273c1.66,-3.109 0.82047,-4.13914 -1.64453,-4.86914c-1.37625,-0.40688 -2.79938,-0.52904 -4.07226,-0.51367z"></path></g></g>
</svg>